# ProBuilder 4.5.2
# https://unity3d.com/unity/features/worldbuilding/probuilder
# 19.06.2022 13:25:23

mtllib ./checkPointFlag.mtl
o checkPointFlag

g Cube (1)
v 0 0 0
v -15 0 0
v -6.821485 2.558057 -5.968799
v -9.379541 2.558057 -5.968799
v -15 0 -15
v -9.379541 2.558057 -8.526855
v 0 0 -15
v -6.821485 2.558057 -8.526855
v -9.379541 23.02261 -5.968799
v -9.379541 23.02261 -8.526855
v -6.821485 2.558057 -7.247827
v -6.821485 2.558057 -7.887341
v -6.821485 2.558057 -6.608313
v -6.821485 12.79034 -5.968799
v -6.821485 7.674196 -5.968799
v -6.821485 23.02261 -5.968799
v -6.821485 12.36394 -5.968799
v -6.821485 7.674196 -8.526855
v -6.821485 12.79033 -7.887341
v -6.821485 7.674196 -7.887341
v -6.821485 12.79033 -6.608313
v -6.821485 7.674196 -6.608313
v -6.821485 12.79033 -7.247828
v -6.821485 7.674196 -7.247828
v -0.8525872 18.33274 -6.608313
v -0.8525872 18.75908 -6.608313
v -6.821485 12.36394 -6.608313
v -0.8525872 18.33274 -5.968799
v -0.8525872 18.75908 -5.968799
v -0.8525872 18.75908 -7.247828
v -0.8525872 18.33274 -7.247828
v -0.8525872 18.75908 -7.887341
v -0.8525872 18.75908 -8.526855
v -0.8525872 18.33274 -8.526855
v -0.8525872 18.33274 -7.887341
v -6.821485 12.36394 -8.526855
v -6.821485 12.79034 -8.526855
v -6.821485 12.36394 -7.247828
v -6.821485 12.36394 -7.887341
v -6.821485 23.02261 -8.526855
v -6.821485 23.02261 -7.887341
v -6.821485 23.02261 -7.247827
v -6.821485 23.02261 -6.608313

vt 0 0
vt 15 0
vt 6.821485 -6.49386
vt 9.379541 -6.49386
vt 13.65247 0
vt 13.65247 -15
vt 7.477264 -5.968799
vt 7.477264 -8.526855
vt 15 -13.95022
vt 0 -13.95022
vt 9.379541 -6.989953
vt 6.821485 -6.989953
vt 0 -15
vt -15 -15
vt -15 0
vt -5.968799 2.558057
vt -8.526855 2.558057
vt -5.968799 23.02261
vt -8.526855 23.02261
vt 7.285349 -7.247827
vt 7.285349 -7.887341
vt 7.285349 -8.526855
vt 7.285349 -5.968799
vt 7.285349 -6.608313
vt 19.8213 -8.526855
vt 19.8213 -5.968799
vt -6.821485 12.79034
vt -6.821485 7.674196
vt -6.821485 2.558057
vt -9.379541 2.558057
vt -9.379541 23.02261
vt -6.821485 23.02261
vt -6.821485 12.36394
vt 8.526855 7.674196
vt 8.526855 2.558057
vt 7.887341 2.558057
vt 7.247827 2.558057
vt 7.887341 12.79033
vt 7.887341 7.674196
vt 5.968799 12.79034
vt 6.608313 12.79033
vt 6.608313 7.674196
vt 5.968799 7.674196
vt 7.247828 12.79033
vt 7.247828 7.674196
vt 6.608313 2.558057
vt 5.968799 2.558057
vt 6.608313 18.33274
vt 6.608313 18.75908
vt 6.608313 12.36394
vt 5.968799 12.36394
vt 5.968799 18.33274
vt 5.968799 18.75908
vt 7.247828 18.75908
vt 7.247828 18.33274
vt 7.887341 18.75908
vt 8.526855 18.75908
vt 8.526855 18.33274
vt 7.887341 18.33274
vt 8.526855 12.36394
vt 8.526855 12.79034
vt 7.247828 12.36394
vt 7.887341 12.36394
vt 6.821485 12.79034
vt 6.821485 12.36394
vt 6.821485 23.02261
vt 9.379541 23.02261
vt 9.379541 2.558057
vt 6.821485 2.558057
vt 6.821485 7.674196
vt 17.62194 -7.887341
vt 17.62194 -8.526855
vt 10.31277 -7.887341
vt 10.31277 -8.526855
vt 0.8525872 18.75908
vt 0.8525872 18.33274
vt 3.919 -8.526855
vt 3.919 -7.887341
vt 12.36023 -8.526855
vt 12.36023 -7.887341
vt 17.62194 -7.247827
vt 10.31277 -7.247828
vt 3.919 -7.247828
vt 12.36023 -7.247828
vt 3.919 -6.608313
vt 12.36023 -6.608313
vt 17.62194 -6.608313
vt 10.31277 -6.608313
vt 3.919 -5.968799
vt 12.36023 -5.968799
vt -0.8525872 18.33274
vt -0.8525872 18.75908
vt 17.62194 -5.968799
vt 10.31277 -5.968799

vn 0 0.919145 0.3939194
vn -0.4142462 0.9101649 0
vn 0 0.9300144 -0.3675231
vn 0 -1 0
vn -1 0 0
vn 0.3511235 0.9363292 0
vn 0 1 0
vn 0 0 0.3333333
vn 0 0 1
vn 0 0 0
vn 1 0 0
vn -0.3333333 0 0
vn 0.2 0 0
vn 0.1428571 0 0
vn 0 0 -0.3333333
vn 0 0 -1
vn 0.3487446 0.8882389 0
vn 0.387494 0.8758209 0
vn 0.581241 0.8137315 0
vn 0.707101 -0.7071126 0
vn 0.2906205 0.9068658 0

usemtl Lit
f 7/13/6 8/22/6 12/21/6
f 7/13/6 12/21/6 11/20/6
f 1/1/6 7/13/6 11/20/6
f 13/24/6 1/1/6 11/20/6
f 3/23/6 1/1/6 13/24/6
f 4/30/9 3/29/9 15/28/9
f 4/30/9 15/28/9 14/27/8
f 9/31/8 4/30/9 14/27/8
f 17/33/10 9/31/8 14/27/8
f 9/31/8 17/33/10 16/32/9
f 40/66/16 36/65/10 10/67/15
f 37/64/15 10/67/15 36/65/10
f 37/64/15 6/68/16 10/67/15
f 37/64/15 18/70/16 6/68/16
f 18/70/16 8/69/16 6/68/16
f 32/56/11 35/59/11 33/57/11
f 35/59/11 34/58/11 33/57/11
f 30/54/11 31/55/11 32/56/11
f 31/55/11 35/59/11 32/56/11
f 25/48/11 31/55/11 30/54/11
f 26/49/11 25/48/11 30/54/11
f 28/52/11 25/48/11 26/49/11
f 29/53/11 28/52/11 26/49/11
f 32/73/19 40/72/18 41/71/17
f 32/73/19 33/74/19 40/72/18
f 30/82/19 41/71/17 42/81/21
f 30/82/19 32/73/19 41/71/17
f 26/88/19 42/81/21 43/87/17
f 26/88/19 30/82/19 42/81/21
f 29/94/19 43/87/17 16/93/21
f 29/94/19 26/88/19 43/87/17
f 41/71/17 40/72/18 10/25/7
f 42/81/21 41/71/17 10/25/7
f 10/25/7 9/26/7 42/81/21
f 9/26/7 43/87/17 42/81/21
f 9/26/7 16/93/21 43/87/17
f 14/40/12 15/43/11 21/41/13
f 15/43/11 22/42/11 21/41/13
f 21/41/13 22/42/11 23/44/14
f 22/42/11 24/45/11 23/44/14
f 20/39/11 19/38/10 23/44/14
f 24/45/11 20/39/11 23/44/14
f 19/38/10 39/63/5 38/62/5
f 23/44/14 19/38/10 38/62/5
f 23/44/14 38/62/5 27/50/5
f 23/44/14 27/50/5 21/41/13
f 17/51/5 14/40/12 27/50/5
f 14/40/12 21/41/13 27/50/5
f 37/61/12 36/60/5 39/63/5
f 19/38/10 37/61/12 39/63/5
f 19/38/10 18/34/11 37/61/12
f 19/38/10 20/39/11 18/34/11
f 8/35/11 18/34/11 20/39/11
f 12/36/11 8/35/11 20/39/11
f 24/45/11 12/36/11 20/39/11
f 11/37/11 12/36/11 24/45/11
f 13/46/11 24/45/11 22/42/11
f 11/37/11 24/45/11 13/46/11
f 15/43/11 13/46/11 22/42/11
f 15/43/11 3/47/11 13/46/11
f 34/79/20 39/78/20 36/77/20
f 34/79/20 35/80/20 39/78/20
f 35/80/20 38/83/20 39/78/20
f 35/80/20 31/84/20 38/83/20
f 31/84/20 27/85/20 38/83/20
f 31/84/20 25/86/20 27/85/20
f 25/86/20 17/89/20 27/85/20
f 25/86/20 28/90/20 17/89/20
f 4/4/1 2/2/1 1/1/1
f 1/1/1 3/3/1 4/4/1
f 6/8/2 5/6/2 2/5/2
f 2/5/2 4/7/2 6/8/2
f 8/12/3 7/10/3 5/9/3
f 5/9/3 6/11/3 8/12/3
f 2/15/4 5/14/4 7/13/4
f 7/13/4 1/1/4 2/15/4
f 10/19/5 6/17/5 4/16/5
f 4/16/5 9/18/5 10/19/5
f 34/76/16 36/65/16 40/66/16
f 40/66/16 33/75/16 34/76/16
f 29/92/9 16/32/9 17/33/9
f 17/33/9 28/91/9 29/92/9

