# ProBuilder 4.5.2
# https://unity3d.com/unity/features/worldbuilding/probuilder
# 11.05.2022 21:22:27

mtllib ./New_Game_Object.mtl
o New Game Object

g New Game Object
v 1.426166 1 -0.1188469
v 0.9507761 1 0.9903927
v 0.07923126 1 1.584627
v -1.030007 1 1.663858
v -2.099631 1 1.545012
v -2.495788 1 0.7526979
v -2.614635 1 -0.1584625
v -2.654251 1 -5.229269
v -2.495788 1 -6.180044
v -1.505396 1 -6.615816
v -0.3961563 1 -6.853512
v 0.8715448 1 -6.378122
v 1.663858 1 -5.268885
v -3.330695 -3.0001 -13.88121
v -0.2172046 -3.0001 -14.5484
v 3.341066 -3.0001 -13.21404
v 5.564987 -3.0001 -10.10055
v -6.110596 -3.0001 -12.65806
v -6.55538 -3.0001 -9.989361
v 3.563458 -3.0001 7.468412
v 1.117146 -3.0001 9.13635
v 4.897814 -3.0001 4.354923
v -6.110596 -3.0001 6.801235
v -1.996342 -3.0001 9.358744
v -4.998636 -3.0001 9.025155
v -6.444184 -3.0001 4.243727
v -1.505396 0 -6.615816
v -0.3961563 0 -6.853512
v 0.8715448 0 -6.378122
v 1.663858 0 -5.268885
v -2.495788 0 -6.180044
v -2.654251 0 -5.229269
v 0.9507761 0 0.9903927
v 0.07923126 0 1.584627
v 1.426166 0 -0.1188469
v -1.030007 0 1.663858
v -2.099631 0 1.545012
v -2.495788 0 0.7526979
v -2.614635 0 -0.1584625
v 4.897814 0 4.354923
v 5.564987 0 -10.10056
v -6.55538 0 -9.989361
v -6.444184 0 4.243727
v -6.110596 0 6.801235
v -1.996342 0 9.358744
v 1.117146 0 9.136351
v -4.998636 0 9.025155
v 3.563458 0 7.468412
v -6.110596 0 -12.65806
v -3.330695 0 -13.88122
v 3.341066 0 -13.21404
v -0.2172046 0 -14.5484

vt -1.426166 -0.1188469
vt -0.9507761 0.9903927
vt -0.07923126 1.584627
vt 1.030007 1.663858
vt 2.099631 1.545012
vt 2.495788 0.7526979
vt 2.614635 -0.1584625
vt 2.654251 -5.229269
vt 2.495788 -6.180044
vt 1.505396 -6.615816
vt 0.3961563 -6.853512
vt -0.8715448 -6.378122
vt -1.663858 -5.268885
vt -3.330695 -13.88121
vt -0.2172046 -14.5484
vt 3.341066 -13.21404
vt 5.564987 -10.10055
vt -6.110596 -12.65806
vt -6.55538 -9.989361
vt 3.563458 7.468412
vt 1.117146 9.13635
vt 4.897814 4.354923
vt -6.110596 6.801235
vt -1.996342 9.358744
vt -4.998636 9.025155
vt -6.444184 4.243727
vt 0.08576506 0
vt -1.048656 0
vt 0.08576506 1
vt -1.048656 1
vt 2.777368 0
vt 1.423462 0
vt 2.777368 1
vt 1.423462 1
vt 4.683514 0
vt 3.320367 0
vt 4.683514 1
vt 3.320367 1
vt -0.2045066 0
vt -1.28653 0
vt -0.2045066 1
vt -1.28653 1
vt -4.721763 0
vt -5.685653 0
vt -4.721763 1
vt -5.685653 1
vt 0.2276332 0
vt -0.8272151 0
vt 0.2276332 1
vt -0.8272151 1
vt 0.6710327 0
vt -0.5357844 0
vt 0.6710327 1
vt -0.5357844 1
vt -0.8399655 0
vt -1.916172 0
vt -0.8399655 1
vt -1.916172 1
vt 0.4429166 0
vt -0.4429168 0
vt 0.4429166 1
vt -0.4429168 1
vt -0.03387 0
vt -1.145935 0
vt -0.03387 1
vt -1.145935 1
vt 0.4235727 0
vt -0.495306 0
vt 0.4235727 1
vt -0.495306 1
vt -0.1788839 0
vt -5.249845 0
vt -0.1788839 1
vt -5.249845 1
vt 5.339993 0
vt 0.1844732 0
vt 5.339993 1
vt 0.1844732 1
vt -4.897814 4.354923
vt -5.564987 -10.10056
vt 6.55538 -9.989361
vt 6.444184 4.243727
vt 6.110596 6.801235
vt 1.996342 9.358744
vt -1.117146 9.136351
vt 4.998636 9.025155
vt -3.563458 7.468412
vt 6.110596 -12.65806
vt 3.330695 -13.88122
vt -3.341066 -13.21404
vt 0.2172046 -14.5484
vt -4.124481 3.732369E-08
vt 10.34639 3.732369E-08
vt -4.124481 -3.0001
vt 10.34639 -3.0001
vt -10.04027 0
vt 4.193254 0
vt -10.04027 -3.0001
vt 4.193254 -3.0001
vt 3.374597 1.426451E-07
vt 5.953769 1.426451E-07
vt 3.374597 -3.0001
vt 5.953769 -3.0001
vt -2.658055 0
vt 0.4633658 0
vt -2.658055 -3.0001
vt 0.4633659 -3.0001
vt -3.971401 0
vt -0.9506302 0
vt -3.971401 -3.0001
vt -0.9506302 -3.0001
vt 3.350468 0
vt 5.836886 0
vt 3.350468 -3.0001
vt 5.836886 -3.0001
vt -4.223822 2.147895E-06
vt -1.263001 2.147895E-06
vt -4.223822 -3.000098
vt -1.263001 -3.000098
vt -5.460833 0
vt -2.073456 0
vt -5.460833 -3.0001
vt -2.073456 -3.0001
vt -11.48126 4.23741E-07
vt -8.775746 4.23741E-07
vt -11.48126 -3.0001
vt -8.775746 -3.0001
vt -2.541856 4.087157E-06
vt 0.4952409 4.087157E-06
vt -2.541856 -3.000096
vt 0.4952413 -3.000096
vt 4.984572 1.921413E-06
vt 8.810747 1.921413E-06
vt 4.984571 -3.000098
vt 8.810747 -3.000098
vt 1.511434 0
vt 5.311671 0
vt 1.511434 -3.0001
vt 5.31167 -3.0001
vt -2.835949 4.435766E-06
vt 0.3482235 4.435766E-06
vt -2.835948 -3.000096
vt 0.3482237 -3.000096

vn 0 1 0
vn 0 -1 0
vn -0.2095304 0 -0.9778022
vn 0.3511245 0 -0.9363288
vn 0.8137332 0 -0.5812387
vn -0.4027382 0 -0.9153153
vn -0.9863939 0 -0.164399
vn 0.5633364 0 0.8262277
vn 0.9191447 0 0.3939201
vn -0.1104313 0 0.9938837
vn -0.8944272 0 0.4472136
vn 0.07124699 0 0.9974587
vn -0.9916005 0 0.1293391
vn -0.9999695 0 0.007812253
vn 0.9989367 0 0.04610453

usemtl ground1
f 12/12/1 11/11/1 10/10/1
f 13/13/1 12/12/1 10/10/1
f 10/10/1 9/9/1 13/13/1
f 9/9/1 8/8/1 13/13/1
f 1/1/1 3/3/1 2/2/1
f 5/5/1 4/4/1 6/6/1
f 6/6/1 4/4/1 3/3/1
f 7/7/1 6/6/1 3/3/1
f 1/1/1 7/7/1 3/3/1
f 7/7/1 1/1/1 8/8/1
f 13/13/1 8/8/1 1/1/1
f 22/22/2 19/19/2 17/17/2
f 19/19/2 22/22/2 26/26/2
f 21/21/2 26/26/2 22/22/2
f 21/21/2 23/23/2 26/26/2
f 21/21/2 24/24/2 23/23/2
f 23/23/2 24/24/2 25/25/2
f 20/20/2 21/21/2 22/22/2
f 17/17/2 19/19/2 18/18/2
f 17/17/2 18/18/2 14/14/2
f 14/14/2 16/16/2 17/17/2
f 14/14/2 15/15/2 16/16/2
f 11/30/3 28/28/3 27/27/3
f 27/27/3 10/29/3 11/30/3
f 12/34/4 29/32/4 28/31/4
f 28/31/4 11/33/4 12/34/4
f 13/38/5 30/36/5 29/35/5
f 29/35/5 12/37/5 13/38/5
f 10/42/6 27/40/6 31/39/6
f 31/39/6 9/41/6 10/42/6
f 9/46/7 31/44/7 32/43/7
f 32/43/7 8/45/7 9/46/7
f 3/50/8 34/48/8 33/47/8
f 33/47/8 2/49/8 3/50/8
f 2/54/9 33/52/9 35/51/9
f 35/51/9 1/53/9 2/54/9
f 5/58/10 37/56/10 36/55/10
f 36/55/10 4/57/10 5/58/10
f 6/62/11 38/60/11 37/59/11
f 37/59/11 5/61/11 6/62/11
f 4/66/12 36/64/12 34/63/12
f 34/63/12 3/65/12 4/66/12
f 7/70/13 39/68/13 38/67/13
f 38/67/13 6/69/13 7/70/13
f 8/74/14 32/72/14 39/71/14
f 39/71/14 7/73/14 8/74/14
f 1/78/15 35/76/15 30/75/15
f 30/75/15 13/77/15 1/78/15
f 41/80/1 30/13/1 35/1/1
f 35/1/1 40/79/1 41/80/1
f 43/82/1 39/7/1 32/8/1
f 32/8/1 42/81/1 43/82/1
f 44/83/1 38/6/1 39/7/1
f 39/7/1 43/82/1 44/83/1
f 46/85/1 34/3/1 36/4/1
f 36/4/1 45/84/1 46/85/1
f 45/84/1 36/4/1 37/5/1
f 37/5/1 47/86/1 45/84/1
f 47/86/1 37/5/1 38/6/1
f 38/6/1 44/83/1 47/86/1
f 48/87/1 33/2/1 34/3/1
f 34/3/1 46/85/1 48/87/1
f 40/79/1 35/1/1 33/2/1
f 33/2/1 48/87/1 40/79/1
f 42/81/1 32/8/1 31/9/1
f 31/9/1 49/88/1 42/81/1
f 49/88/1 31/9/1 27/10/1
f 27/10/1 50/89/1 49/88/1
f 51/90/1 29/12/1 30/13/1
f 30/13/1 41/80/1 51/90/1
f 52/91/1 28/11/1 29/12/1
f 29/12/1 51/90/1 52/91/1
f 50/89/1 27/10/1 28/11/1
f 28/11/1 52/91/1 50/89/1
f 17/95/15 41/93/15 40/92/15
f 40/92/15 22/94/15 17/95/15
f 26/99/14 43/97/14 42/96/14
f 42/96/14 19/98/14 26/99/14
f 23/103/13 44/101/13 43/100/13
f 43/100/13 26/102/13 23/103/13
f 21/107/12 46/105/12 45/104/12
f 45/104/12 24/106/12 21/107/12
f 24/111/10 45/109/10 47/108/10
f 47/108/10 25/110/10 24/111/10
f 25/115/11 47/113/11 44/112/11
f 44/112/11 23/114/11 25/115/11
f 20/119/8 48/117/8 46/116/8
f 46/116/8 21/118/8 20/119/8
f 22/123/9 40/121/9 48/120/9
f 48/120/9 20/122/9 22/123/9
f 19/127/7 42/125/7 49/124/7
f 49/124/7 18/126/7 19/127/7
f 18/131/6 49/129/6 50/128/6
f 50/128/6 14/130/6 18/131/6
f 16/135/5 51/133/5 41/132/5
f 41/132/5 17/134/5 16/135/5
f 15/139/4 52/137/4 51/136/4
f 51/136/4 16/138/4 15/139/4
f 14/143/3 50/141/3 52/140/3
f 52/140/3 15/142/3 14/143/3

